<svg xmlns="http://www.w3.org/2000/svg" width="1200" height="630" viewBox="0 0 1200 630" role="img" aria-labelledby="title desc">
  <title id="title">Persistly JavaScript SDK</title>
  <desc id="desc">Cloud saves for browser games</desc>
  <defs>
    <linearGradient id="logo-gradient" x1="0" x2="1" y1="0" y2="1">
      <stop offset="0" stop-color="#8b5cf6"/>
      <stop offset="1" stop-color="#22d3ee"/>
    </linearGradient>
    <filter id="logo-glow" x="-80%" y="-80%" width="260%" height="260%">
      <feGaussianBlur stdDeviation="8" result="blur"/>
      <feColorMatrix in="blur" type="matrix" values="0 0 0 0 0.55 0 0 0 0 0.36 0 0 0 0 0.96 0 0 0 0.28 0"/>
      <feMerge>
        <feMergeNode/>
        <feMergeNode in="SourceGraphic"/>
      </feMerge>
    </filter>
  </defs>
  <rect width="1200" height="630" fill="#1e293b"/>
  <rect x="0.5" y="0.5" width="1199" height="629" rx="14" fill="none" stroke="#ffffff" stroke-opacity="0.10"/>
  <g transform="translate(600 227)" filter="url(#logo-glow)">
    <path d="M0 -32 28 -16v32L0 32-28 16v-32Z" fill="none" stroke="#6366f1" stroke-width="3"/>
    <path d="M0 -22 19 -11v22L0 22-19 11v-22Z" fill="none" stroke="#8b5cf6" stroke-width="3"/>
    <path d="M0 -12 11 -6v12L0 12-11 6V-6Z" fill="url(#logo-gradient)"/>
  </g>
  <text x="600" y="314" text-anchor="middle" fill="#f8fafc" font-family="DM Sans, Inter, Arial, sans-serif" font-size="48" font-weight="700" letter-spacing="0">Persistly JavaScript SDK</text>
  <text x="600" y="373" text-anchor="middle" fill="#cbd5e1" font-family="DM Sans, Inter, Arial, sans-serif" font-size="18" font-weight="400" letter-spacing="0">Cloud saves for browser games</text>
  <g transform="translate(600 416)">
    <rect x="-41" y="-15" width="82" height="30" rx="6" fill="#6366f1"/>
    <text x="0" y="6" text-anchor="middle" fill="#ffffff" font-family="DM Sans, Inter, Arial, sans-serif" font-size="16" font-weight="700" letter-spacing="0">JS SDK</text>
  </g>
</svg>
